<?xml version="1.0" standalone="no"?>
<!DOCTYPE svg PUBLIC "-//W3C//DTD SVG 20010904//EN"
 "http://www.w3.org/TR/2001/REC-SVG-20010904/DTD/svg10.dtd">
<svg version="1.0" xmlns="http://www.w3.org/2000/svg"
 width="450.000000pt" height="643.000000pt" viewBox="0 0 450.000000 643.000000"
 preserveAspectRatio="xMidYMid meet">
<metadata>
Created by potrace 1.10, written by Peter Selinger 2001-2011
</metadata>
<g transform="translate(0.000000,643.000000) scale(0.100000,-0.100000)"
fill="#000000" stroke="none">
<path d="M3410 5613 c-16 -45 -25 -57 -60 -80 -46 -32 -90 -43 -200 -49 -135
-9 -371 11 -631 52 -240 38 -474 54 -521 36 -15 -6 -42 -35 -61 -64 -35 -55
-190 -216 -437 -453 -181 -174 -205 -212 -205 -332 0 -67 4 -86 21 -109 35
-47 70 -67 127 -72 64 -5 118 18 165 73 47 53 43 65 -23 65 -64 0 -119 20
-134 48 -30 57 3 171 63 216 116 88 393 97 806 27 96 -16 201 -33 233 -36 31
-4 57 -9 57 -12 0 -6 -194 -247 -303 -375 -50 -60 -98 -108 -107 -108 -9 0
-40 -12 -68 -26 -43 -21 -78 -56 -190 -187 -200 -235 -223 -264 -243 -303 -27
-55 -4 -94 57 -94 31 0 32 1 36 52 4 34 12 56 24 65 34 25 605 15 697 -13 16
-5 17 -35 17 -445 0 -493 12 -824 40 -1163 27 -309 27 -466 0 -520 -20 -42
-101 -136 -116 -136 -5 0 -21 24 -37 53 -15 28 -104 156 -198 282 -297 400
-366 514 -429 704 -45 140 -63 257 -57 378 8 161 49 219 173 242 87 17 124
-13 124 -100 0 -70 10 -74 62 -24 38 37 52 82 49 158 -4 118 -114 170 -237
113 -33 -15 -82 -55 -140 -113 -49 -50 -118 -116 -154 -148 -158 -140 -318
-307 -343 -358 -68 -140 -57 -334 34 -565 48 -122 157 -303 478 -795 152 -233
256 -412 266 -458 10 -45 -2 -79 -60 -177 -55 -93 -72 -144 -61 -186 7 -30 53
-86 70 -86 7 0 20 33 30 77 24 102 90 241 157 330 30 39 110 137 179 218 170
199 176 210 145 310 l-14 49 62 54 c184 162 420 431 478 545 34 66 58 145 65
211 3 34 -6 217 -22 421 -23 302 -28 423 -28 750 -1 215 3 461 8 548 l8 158
79 60 c44 33 86 70 93 82 22 34 30 95 16 112 -18 22 -23 19 -45 -21 -11 -21
-35 -44 -59 -56 -39 -20 -51 -21 -301 -14 -143 3 -315 9 -382 13 l-122 6 59
71 c103 125 373 401 402 412 16 5 75 62 132 125 151 166 237 248 387 368 147
117 169 144 153 188 -14 40 -51 44 -64 6z"/>
</g>
</svg>
